<svg xmlns="http://www.w3.org/2000/svg" viewBox="239.27 241.591 67.35 83.54">
  <path d="M299.92,282.07s1.63-3.12,1.38-4-4.79-6.25-5.12-9.46-0.5-5.1-1.21-5.22-7,.06-7,0.06-1.59-.16-1.72.78a47.07,47.07,0,0,1-4.66,15.06c-1.19-1.82-4.4-6-4.68-8.68-0.33-3.21-.5-5.1-1.21-5.22s-7,.06-7,0.06-1.59-.16-1.72.78a47.07,47.07,0,0,1-1.85,8.22c-1-2.47-1.48-3.39-1.34-3.86,0.19-.65,1.52-3.27,1.44-4.12s-0.75-2-2.44-3.23a7.66,7.66,0,0,1-2.35-2.52c-0.21-.33-0.25-1.42-1-1.62a24.1,24.1,0,0,0-5-.32s-2.87.13-3.71,0.25a1.71,1.71,0,0,0-1.71,1.71,28.75,28.75,0,0,1-2.25,10.88c-2.17,4.88-7.5,13.13-7.5,27.5s2.71,21.52,3.17,22.23a3,3,0,0,0,.75.77c0.33,0.17,2,1.13,5.94,1l8.78-.27a4,4,0,0,0,.37.72,3.65,3.65,0,0,0,3.43,1.54h17a4.76,4.76,0,0,0,3.41-2h15.91a4.76,4.76,0,0,0,3.79-2.62,39.68,39.68,0,0,0,4.8-18.08C306.52,293.86,299.92,282.07,299.92,282.07Z
M249.08,256.08c0.34,0,3.25-.36,5.28-0.38s4.94,0.39,5.28.38,0-.31,0-0.31l-0.12-3.4c0-.62-1-0.81-1.13-1a14.21,14.21,0,0,1-.08-2.31,1.51,1.51,0,0,0-.11-0.38h2.7s0.35,0.1.4-.17,0.4-.48.52-0.31,0.73,0.29,1,.5,1.67,1.77.13,4.31-2.42,4.17-3.54,4.83-1,.73-0.29.67,2.85-.6,4.67-3.5,3.4-2.12,3.4-2.12a0.87,0.87,0,0,0,0,.79l0.23,0.33a0.94,0.94,0,0,1,.31.6c0,0.33-.19,1.17.15,1.31a3.55,3.55,0,0,0,.65.21v0.27s-1.48,0-1.5.69,0.08,4.75.08,4.75,3.44,0.21,4.81.15,4-.35,4-0.35v-4.66a1.2,1.2,0,0,0-1-.71c-0.77-.08-0.21-0.42-0.06-0.4s1.27,0.13,1.23-.42-0.31-2.92,0-2.94l5.42-.23c-1.09,1.81-1.86,3-2.77,3.56-1.12.66-1,.73-0.29,0.67s2.85-.6,4.67-3.5,3.4-2.12,3.4-2.12a0.87,0.87,0,0,0,0,.79l0.23,0.33a0.94,0.94,0,0,1,.31.6c0,0.33-.19,1.17.15,1.31a3.55,3.55,0,0,0,.65.21v0.27s-1.48,0-1.5.69,0.08,4.75.08,4.75,3.44,0.21,4.81.15,4-.35,4-0.35v-4.66a1.2,1.2,0,0,0-1-.71c-0.77-.08-0.21-0.42-0.06-0.4s1.27,0.13,1.23-.42-0.31-2.92,0-2.94l5.42-.23a3.63,3.63,0,0,1-.15-0.48,8.4,8.4,0,0,0-4.46-6.54c-4.3-2.35-15.92-1.53-15.92-1.53l-3.48.18a0.67,0.67,0,0,0-.33.75c0,0.3.06,1.54,0.12,2.46-4.5-2.17-15.63-1.39-15.63-1.39l-3.48.18a0.67,0.67,0,0,0-.33.75c0,0.29.06,1.48,0.11,2.39a9.19,9.19,0,0,0-2.92-.44c-1,0-3,.17-3.22.71a13.56,13.56,0,0,0-.72,1.76,14.21,14.21,0,0,1-.08,2.31c-0.16.21-1.11,0.4-1.13,1l-0.12,3.4S248.7,256.06,249.08,256.08Zm31.54-9.61c0-.27.4-0.48,0.52-0.31s0.73,0.29,1,.5,1.67,1.77.13,4.31l-0.77,1.27a3.63,3.63,0,0,1-.15-0.48,8.39,8.39,0,0,0-2.51-5.11h1.38S280.57,246.73,280.62,246.46Z" fill="#06215a"/>
</svg>