<svg xmlns="http://www.w3.org/2000/svg" viewBox="37.3576 60.68 46.18 72.07">
  <path d="M81.36,66.25C77.16,59.09,70.77,60.8,68.75,61S60,61.74,59.1,62.2a15.07,15.07,0,0,0-1.41.78s-6.85.31-8.56,4.05-8.1,16-9.81,26.78-1.56,14-1.25,14.33a6.88,6.88,0,0,0,.78.16l-.31.31a1.78,1.78,0,0,0-1.09,1.87c0,1.55-.93,14.32,3.11,17.75s6.54,4.52,12.31,4.52h3.89c5.45,0,12.15-.16,15.26-.47,3.89-.47,8.88-.16,10.12-6.85A69.88,69.88,0,0,0,83.23,112l.31-37.68C83.08,70.92,82.45,68,81.36,66.25ZM53.49,107.36c.31-.78,4.67-3.74,8.41-4.36s8.72-.62,9.34-.31,1.87,1.4.47,3.89-2.65,4.83-7,5.14-9-2-9.65-2.33S52.87,108.76,53.49,107.36Zm27.25,17.75c-.93,4.83-3.89,5.14-7.47,5.46-.47,0-.78.15-1.25.15-2.49.31-8.25.47-15.11.47H53c-5.29,0-7.47-.94-11.21-4.21-1.4-1.24-3-5-2.65-15.72v-1.09h.16l.31-.16,1.4-.93c.62.31,2.34,0,2.8.62s1.72,1.4,3.9,2.33,11.21,4.21,17.59,3.9c5.92-.31,12.77-7.94,15.42-9.35.16,0,.16.16.31.16a9.4,9.4,0,0,1,.94.43s-.08.11-.16.19v1.25A87.11,87.11,0,0,1,80.74,125.11Z" fill="#fff"/>
</svg>