<svg xmlns="http://www.w3.org/2000/svg" viewBox="182.468 65.1873 32.42 57.71">
  <path d="M192.33,68.54a6,6,0,0,0,2.24.36c0.77-.09.91-0.11,0.91-0.11l0.09,3.69a0.94,0.94,0,0,0-.43.43,4.18,4.18,0,0,1-.2.48s-1.39.23-1.45,0.82-0.34,1.62-.37,2.36a4.94,4.94,0,0,0,0,1.75h9.53c0.21-.07.82-0.09,0.82-0.41a19.22,19.22,0,0,0-.23-2.87,5.79,5.79,0,0,1-.28-0.85c0-.11.11-0.62-0.28-0.74a7.47,7.47,0,0,0-1.45-.09,1.8,1.8,0,0,0-.11-0.54c-0.09-.14-0.37-0.48-0.37-0.48l0.09-3.8h6.73a1.91,1.91,0,0,0,.77-0.83,0.63,0.63,0,0,0-.43-1c-0.31-.11-3-0.75-5.46-1.21a18.74,18.74,0,0,0-7.32.1c-1.45.31-2.83,0.76-3,1.33C191.68,68.25,192.13,68.43,192.33,68.54Z
M212.4,82a2,2,0,0,0-1.65-1.59,18.17,18.17,0,0,0-1.85-.18H188.53a18.15,18.15,0,0,0-1.85.18A2,2,0,0,0,185,82c-0.2.62-2.61,8.41-2.53,15.22s2.81,20.87,3.18,21.89,1,0.8,1.16,1.62,1.36,1.65,2.67,1.85c1,0.16,5.66.28,8.32,0.32l0.11,0h1.54l0.11,0c2.66,0,7.3-.17,8.32-0.32,1.31-.2,2.5-1,2.67-1.85s0.8-.6,1.16-1.62,3.1-15.08,3.18-21.89S212.6,82.65,212.4,82Z" fill="#fff"/>
</svg>