<svg xmlns="http://www.w3.org/2000/svg" viewBox="5 -0.5 35.27 78.8">
  <path d="M29.93,15.9V11.33c0-.69-1.48-1.48-1.48-1.48V9.58s0,.47,0-.27a55.46,55.46,0,0,0-.67-5.92c-.36-2.31-.6-3.12-1.07-3.5S24.14-.5,22.8-.5h-.25c-1.34,0-3.46,0-3.92.4s-.71,1.19-1.08,3.5a55.4,55.4,0,0,0-.67,5.92c0,.74,0,.27,0,.27v.27s-1.48.79-1.48,1.48v4.58C15.4,15.54,29.93,15.52,29.93,15.9Z
M39.59,28.33c-.7-2.85-3.09-5.18-4.83-6.59a21.75,21.75,0,0,0-4.56-2.55,2.2,2.2,0,0,0,0-.27c0-.12-.31-.36-.4-.4s0-.05,0-.1c0-.33-14.28-.33-14.28,0,0,0,0,.1,0,.11s-.39.29-.4.4a2.2,2.2,0,0,0,0,.27,21.82,21.82,0,0,0-4.58,2.56c-1.74,1.41-4.14,3.74-4.84,6.59A18.58,18.58,0,0,0,5,32.66s.34-.06.27.13.13,11.76.13,13.73.27,22.2.27,22.2-.1-.18-.13.27a7.69,7.69,0,0,0,1.75,5.25c1.85,2.11,4.31,2.79,7.81,3.5a35.64,35.64,0,0,0,7.54.54,37.72,37.72,0,0,0,7.54-.6c3.49-.71,5.94-1.39,7.78-3.5a7.69,7.69,0,0,0,1.74-5.24c0-.44-.13-.27-.13-.27s.27-20.22.27-22.19S40.06,33,40,32.77s.27-.13.27-.13A18.6,18.6,0,0,0,39.59,28.33Z" fill="#fff"/>
</svg>