<svg xmlns="http://www.w3.org/2000/svg" viewBox="278.627 54.1495 17.46 70.82">
  <path d="M287.69,65.55c2.24,0,4.69.2,6.46,0.39l0-.11a86,86,0,0,1-.73-8.68c0-3.09-4.56-3-6.22-3s-6.22-.11-6.22,3a86,86,0,0,1-.73,8.68L280.35,66C282.39,65.78,285.31,65.55,287.69,65.55Z
M296,73c0-3.38-1.77-5.13-1.94-5.81a1.6,1.6,0,0,1,0-.26c-1.74-.18-4.12-0.38-6.29-0.38s-5.17.22-7.19,0.41a1.58,1.58,0,0,1,0,.22c-0.17.68-1.94,2.44-1.94,5.81v49.33s-0.63,2.23,7,2.6c0.38,0,.79.05,1.22,0.05h1c0.43,0,.84,0,1.22-0.05,7.61-.37,7-2.6,7-2.6V73Z" fill="#fff"/>
</svg>