<svg xmlns="http://www.w3.org/2000/svg" viewBox="306.48 53.159 39.44 71.85">
  <path d="M342.61,73.83c-0.71-1.87-1.71-1.56-3.28-2A4.79,4.79,0,0,1,337,70.39a50.68,50.68,0,0,1-10.63,1.13h-0.21a50.68,50.68,0,0,1-10.7-1.19,4.81,4.81,0,0,1-2.37,1.54c-1.56.4-2.57,0.1-3.28,2s-3.33,7.77-3.33,20.68,3.83,26,4.09,26.28,0.91,0.25,1.11.81a2.61,2.61,0,0,0,1.87,2A45.37,45.37,0,0,0,325.7,125h1a45.37,45.37,0,0,0,12.15-1.46,2.61,2.61,0,0,0,1.87-2c0.2-.55.86-0.55,1.11-0.81s4.09-13.37,4.09-26.28S343.31,75.7,342.61,73.83Z
M315.88,68.51a49.7,49.7,0,0,0,20.56.1,18.77,18.77,0,0,1-2.2-3.87c-0.7-2.14-1.31-4.54-1-5.83s1.34-3.78-.48-4.49a19.49,19.49,0,0,0-7.09-1.26,37.81,37.81,0,0,0-10.24,2.37c-2.3,1-2.42.91-1.92,1.51S317.49,64.12,315.88,68.51Z" fill="#06215a"/>
</svg>