<svg xmlns="http://www.w3.org/2000/svg" viewBox="356.45000000000005 48.72 32.279999999999916 77.58">
  <path d="M386.07,72.45c-0.23-2.24-.11-6.14-0.34-6.91s-6.17-1-6.77-1a0.75,0.75,0,0,1-.43-0.12,49,49,0,0,0-11.86,0,0.72,0.72,0,0,1-.45.15c-0.59,0-6.54.23-6.77,1s-0.11,4.67-.34,6.91-2.66,24.41-2.66,29.08,1.33,12.17,1.9,15.12,1.33,5.58,1.81,6a3,3,0,0,1,.91,1.25,1.79,1.79,0,0,0,1.33,1.27,60.84,60.84,0,0,0,10.15,1.1h0.08a60.84,60.84,0,0,0,10.15-1.1,1.79,1.79,0,0,0,1.33-1.27,3,3,0,0,1,.91-1.25c0.48-.45,1.25-3.09,1.81-6s1.9-10.45,1.9-15.12S386.3,74.68,386.07,72.45Z
M366.92,62.32a50,50,0,0,1,11.38,0,0.92,0.92,0,0,0,0-.23,4.26,4.26,0,0,1-.19-1c0-.28-0.11-3-0.11-3a0.47,0.47,0,0,0-.32-0.53,12.49,12.49,0,0,0-1.66-.25,4,4,0,0,1-.13-0.64,0.82,0.82,0,0,0-.4-0.38l0-4.55s4.25-1.15,5.68-.94a8.41,8.41,0,0,1,2.28.62,0.65,0.65,0,0,0,.42-0.32c0.21-.3.79-1.32,0.79-1.32a6.1,6.1,0,0,0-3.23-1.06c-1.57.09-8.1,0.59-9,.59a12.26,12.26,0,0,1-2.27-.32s-1.43-.43-1.43.23,0,0.89.28,1,0.89,0.36.89,0.36v5.7a0.75,0.75,0,0,0-.57.49c0,0.34.13,0.64,0,.64s-2,.09-2,0.6a20.76,20.76,0,0,1,0,2.87A12.6,12.6,0,0,0,366.92,62.32Z" fill="#fff"/>
</svg>