<svg xmlns="http://www.w3.org/2000/svg" viewBox="42.9357 51.41 35.03 81.35">
  <path d="M77.94,78.67a1.56,1.56,0,0,1,0-.52V57.09c0-1.71-.34-3.56-3.46-4.68-2.62-.94-11.16-1-13.83-1h-.4c-2.67,0-11.21.09-13.83,1-3.12,1.12-3.46,3-3.46,4.68V78.15a1.56,1.56,0,0,1,0,.52c-.05.26-.05.42.27.35S46.66,79,47.65,79l12.8-.1,12.8.1c1,0,4.09,0,4.42.06S78,78.93,77.94,78.67Z
M77.67,82.66c-.33-.06-3.43-.06-4.42-.06l-12.8-.1-12.8.1c-1,0-4.09,0-4.42.06-.15,0-.23,0-.26,0,0,2.4.13,33.77.13,34.49s0,9.57,0,10.08a9.29,9.29,0,0,0,.57,1.81,1.41,1.41,0,0,0-.38.19,1.32,1.32,0,0,0-.12,1.19c.17.68.29,1.1,4.15,1.68,2.94.45,9.45.61,12.35.66v0h1.46v0c2.9-.05,9.41-.21,12.35-.66,3.86-.58,4-1,4.15-1.68a1.32,1.32,0,0,0-.12-1.19,1.41,1.41,0,0,0-.38-.19,9.29,9.29,0,0,0,.57-1.81c0-.51,0-9.34,0-10.08s.13-32.09.13-34.49C77.9,82.67,77.82,82.7,77.67,82.66Z" fill="#fff"/>
</svg>