<svg xmlns="http://www.w3.org/2000/svg" viewBox="350.304 29.4385 120.9 133.6">
  <path d="M432,76V67.25a6.34,6.34,0,0,0-1.83-4.75c-0.69-.77-2.79-1.12-6.22-1.12s-5.53.36-6.22,1.12a6.34,6.34,0,0,0-1.83,4.75V76A65.1,65.1,0,0,1,432,76Z
M471.17,32.86a1,1,0,0,0-2-.44L459.8,74.09l3.25-43.57a1,1,0,1,0-2-.15l-0.06.81a1,1,0,0,0-.19.44l-5.2,35.14,2.7-36.24a1,1,0,1,0-2-.15v0a1,1,0,0,0-1.79.51l-4.57,61.23c-1.48,0-2.83,0-4,.11L438.69,31.4a1,1,0,1,0-2,.24l7.23,60.77c-1.7.17-2.71,0.42-2.71,0.76a2.24,2.24,0,0,0,.72,1.45s-1.12.48-.72,0.92,0.88,0.2.88,1.81,0.87,5.7-1,7.31a19.8,19.8,0,0,0-4.2,5.41V90.42a15.88,15.88,0,0,0-4.71-11.12c-0.65-.72-6-0.9-7.84-0.95h-0.64c-1.85,0-7.18.22-7.84,0.95a15.88,15.88,0,0,0-4.71,11.13V114c-1.53-7.41-3.38-13.71-3.38-16.47a60,60,0,0,1,1.36-10.5c0.1-.48.22-0.87,0.27-1.27,0-.12,0-0.31,0-0.43A5.37,5.37,0,0,0,404.12,80l-0.52,0s-0.21,0-.54.08h0a37.81,37.81,0,0,1-8.56.55,13.43,13.43,0,0,1-8-2.7A5.37,5.37,0,0,0,378,82.37a5.72,5.72,0,0,0,.1,1,50.17,50.17,0,0,1,1.07,9.8c-0.9,11.15-3.35,14.83-4.41,23.93a9.11,9.11,0,0,0-4.53-.24,54,54,0,0,0-6.21.75,4.42,4.42,0,0,0-.87.5s-4.29.33-5.37,2.79-5.25,10.33-6.29,17.21-1,9-.75,9.17a3.75,3.75,0,0,0,.51.14l-0.22.15a1.07,1.07,0,0,0-.67,1.17c0,1-.58,9.17,2,11.42s4.25,2.88,7.88,2.92h2.52c3.5,0,7.79-.07,9.81-0.31,2.54-.29,5.67-0.12,6.5-4.42,0.12-.62.22-1.27,0.31-1.92a5.16,5.16,0,0,0,2.47.64,5.23,5.23,0,0,0,1.64-.29l0,0a38.66,38.66,0,0,1,9.2-1.32,50.09,50.09,0,0,1,10.66,1.15h0a5.25,5.25,0,0,0,6.68-2.22l0,0a13.56,13.56,0,0,0,1-2V160s-0.08,1,2,1.71a35.26,35.26,0,0,0,9.23,1.25,3.81,3.81,0,0,0,.58,0h2.1a3.81,3.81,0,0,0,.58,0,35.26,35.26,0,0,0,9.23-1.25c2.08-.67,2-1.71,2-1.71V158.9a60.48,60.48,0,0,0,13.2,1.11h1.24c11.09,0,14.86-1.53,15.59-1.85s0.56-2.49.56-2.49V122.33c0-10.45-5.3-16.07-7.14-17.68s-1-5.7-1-7.31,0.48-1.37.88-1.81-0.72-.92-0.72-0.92a2.24,2.24,0,0,0,.72-1.45c0-.28-0.69-0.5-1.87-0.66l0.36-4.86ZM360.68,146.71a11.18,11.18,0,0,1,5.42-2.79c2.46-.42,5.6-0.44,6-0.19s1.17,0.9.29,2.5-1.71,3.06-4.5,3.31a12.5,12.5,0,0,1-6.17-1.5C361.39,147.84,360.22,147.61,360.68,146.71Zm18.2,0a6.2,6.2,0,0,0,0,.8,55,55,0,0,1-.69,10.57c-0.61,3.13-2.48,3.31-4.84,3.53l-0.79.08c-1.63.19-5.25,0.3-9.69,0.3h-2.51c-3.35,0-4.77-.56-7.24-2.68-0.91-.78-1.94-3.17-1.71-10.11,0-.25,0-0.44,0-0.54a0.66,0.66,0,0,1,0-.23l0.06,0,0.15-.11,0.88-.63,0,0c0.38,0.21,1.5,0,1.83.38a7.15,7.15,0,0,0,2.5,1.46c1.42,0.58,7.17,2.67,11.29,2.46,3.84-.19,8.23-5.05,9.85-6a1.3,1.3,0,0,0,.16.09,2.48,2.48,0,0,1,.7.32C378.91,146.5,378.89,146.64,378.88,146.76Zm77.93-59.42-1.11,4.92-1.84-.07,5.22-35.27Z" fill="#06215a"/>
</svg>