<svg xmlns="http://www.w3.org/2000/svg" viewBox="1.5999999999999985 2.2 27.8 55.199999999999996">
  <path d="M25.5,4.6c0,0,0-0.2-0.2-0.1c0,0-0.5-0.1-1.2-0.1c0,0-3.4-2.2-8.5-2.2c0,0-4.1-0.1-8.1,2.2c0,0-1,0-1.2,0.1
		c0,0-0.1,0-0.1,0.2c0,0-0.9,2.9-1.8,7.3h22.9C27.3,11.8,26,6.3,25.5,4.6z M15.9,7.7c-1.6,0-2.9-1.3-3-2.9c1-0.1,2-0.1,3-0.1
		c1,0,2,0,3,0.1C18.8,6.4,17.5,7.7,15.9,7.7z
M29.4,24.8c-0.3-2.7-0.6-5.7-1.2-8.5c-0.1-0.6-0.2-1.2-0.3-1.9h-24c-0.2,0.9-0.3,1.8-0.5,2.7c-0.8,4.6-1.5,10.4-1.8,16
		c-0.3,6.1-0.2,12,0.9,17c0.5,2,1.1,3.8,2,5.3c0,0,0.4,0.9,1.1,1.1c0,0,0.8,0.6,9.5,0.9c0,0,7.9,0.1,10.6-0.8c0,0,0.8-0.1,1.1-0.7
		c0,0,0.5-0.5,1.1-2c0.4-1.1,1-2.7,1.4-5C30.3,43.7,30.6,36.4,29.4,24.8z" fill="#fff"/>
</svg>