<svg xmlns="http://www.w3.org/2000/svg" viewBox="2.1 0.1 40.82 77.5">
  <path d="M39.2,23.1c-2.6-3.9-8.6-6.4-8.8-6.6s-0.4-0.7-0.4-1c0-0.3-0.5-0.5-0.5-0.5s-2.2-0.2-6.9-0.2s-6.9,0.2-6.9,0.2
	s-0.5,0.2-0.5,0.5c0,0.3-0.1,0.8-0.4,1c-0.2,0.2-6.2,2.7-8.8,6.6c-2.6,3.9-3.9,7-3.9,10.2v30c0,0,0.2,5.5,1.8,9.2
	c1.6,3.8,2,4.4,3.6,4.6c1.6,0.2,10.3,0.5,14.8,0.5c0.1,0,0.1,0,0.2,0c0.1,0,0.1,0,0.2,0c4.5,0,13.2-0.3,14.8-0.5
	c1.6-0.2,2-0.8,3.6-4.6c1.6-3.8,1.8-9.2,1.8-9.2v-30C43.1,30.2,41.8,27,39.2,23.1z M35.4,57.6c-1.5,0-3.4-3.5-3.4-12.4
	c0-8.8,2.3-12.2,3.4-12.2v0c1.3,0,3.1,4.3,3.1,12.1S37,57.6,35.4,57.6z
M29.6,13.3v-2c0-0.5-0.7-1.5-1-1.8S28.2,9,28.3,8.8c0.1-0.2-0.2-4-0.4-4.9c-0.1-0.9-0.5-2.7-1.1-3.2
	s-4-0.6-4-0.6h-0.4c0,0-3.4,0-4,0.6c-0.6,0.6-1,2.3-1.1,3.2C17.3,4.7,17,8.6,17,8.8c0.1,0.2-0.1,0.4-0.4,0.7c-0.3,0.3-1,1.3-1,1.8v2
	c0,0,1-0.2,6.9-0.2S29.6,13.3,29.6,13.3z" fill="#fff"/>
</svg>