<svg xmlns="http://www.w3.org/2000/svg" viewBox="140.169 65 32.21 58.35">
  <path d="M163.15,74.65c0-2.54-.12-8.2-0.12-8.81,0-.78-0.36-0.66-0.36-0.66L156.49,65H156l-6.18.19s-0.36-.12-0.36.66c0,0.61-.09,6.27-0.12,8.81h13.78Z
M172.28,120V78.6c0-1-2-.94-2.29-0.94a0.24,0.24,0,0,1-.28-0.28c0-.13-0.34-0.15-0.34-0.15h-1.67a0.26,0.26,0,0,1-.22-0.3,0.51,0.51,0,0,0-.34-0.19h-1.67a0.26,0.26,0,0,1-.16-0.21,0.37,0.37,0,0,0-.24-0.24H163.4a0.28,0.28,0,0,1-.21-0.07H149.31a0.28,0.28,0,0,1-.21.07h-1.64a0.37,0.37,0,0,0-.24.24,0.26,0.26,0,0,1-.16.21h-1.67a0.51,0.51,0,0,0-.34.19,0.26,0.26,0,0,1-.22.3h-1.67s-0.34,0-.34.15a0.24,0.24,0,0,1-.28.28c-0.25,0-2.29-.09-2.29.94V120a2.12,2.12,0,0,0,0,1.16,2.43,2.43,0,0,0,1.66,1.61c1.3,0.32,10.84.56,14.11,0.58h0.52c3.27,0,12.81-.26,14.11-0.58a2.43,2.43,0,0,0,1.66-1.61A2.12,2.12,0,0,0,172.28,120Z" fill="#06215a"/>
</svg>