<svg xmlns="http://www.w3.org/2000/svg" viewBox="225.64 70.5279 36.86 55.73">
  <path d="M261.27,94.38c-0.4-5.85-1.42-20-1.52-21.6s-0.33-1.54-.77-1.54-29.23-.71-29.23-0.71-2-.12-2.19,1.44a39.31,39.31,0,0,0-.62,5.75c0.13,1.31.56,0.81,0.44,2.31s-1.74,42.25-1.74,42.25a6.87,6.87,0,0,0,1.8,1.94c1,0.63,3.56,1.75,3.56,1.75a0.57,0.57,0,0,0,.5.29c0.35,0,30.46-3.46,30.46-3.46a0.64,0.64,0,0,0,.54-0.69C262.5,121.49,261.67,100.24,261.27,94.38ZM228,122.95a2.93,2.93,0,0,1-.92-1.13c0.49-16.49.9-29.79,1.74-43.83,0,0,.64,5.22.89,10.29s1.13,35.63,1.13,35.63A12,12,0,0,1,228,122.95Z" fill="#06215a"/>
</svg>