<svg xmlns="http://www.w3.org/2000/svg" viewBox="169.36 32.06 35.28 97.16">
  <path d="M195.55,45.76a2.9,2.9,0,0,0-1.9-2.68s0-1.14-.13-3.13a38,38,0,0,0-1.18-6.63,1.63,1.63,0,0,0-1.5-1c-0.6-.09-2.93-0.26-3.85-0.26h0c-0.93,0-3.25.17-3.85,0.26a1.63,1.63,0,0,0-1.5,1A38,38,0,0,0,180.47,40c-0.1,2-.13,3.13-0.13,3.13a2.9,2.9,0,0,0-1.9,2.68V50s4.83-.35,8.55-0.35,8.55,0.35,8.55.35V45.76Z
M204.64,84.53c0-15-3.26-21.81-5.08-25a5.57,5.57,0,0,0-2.74-2.1,0.88,0.88,0,0,0,.63-0.77,0.82,0.82,0,0,0-.74-0.69,0.76,0.76,0,0,0,.25-0.65,0.93,0.93,0,0,0-.81-0.6,1,1,0,0,0,.16-0.58,1.07,1.07,0,0,0-.74-0.6,81.1,81.1,0,0,0-8.47-.46H186.9a81.1,81.1,0,0,0-8.47.46,1.07,1.07,0,0,0-.74.6,1,1,0,0,0,.16.58,0.93,0.93,0,0,0-.81.6,0.76,0.76,0,0,0,.25.65,0.82,0.82,0,0,0-.74.69,0.88,0.88,0,0,0,.63.77,5.57,5.57,0,0,0-2.74,2.1c-1.82,3.21-5.08,10-5.08,25,0,12.25,3.21,38.13,3.21,38.13s-0.19,3.56,2.69,4.56a30.77,30.77,0,0,0,11.29,2h0.91a30.77,30.77,0,0,0,11.29-2c2.88-1,2.69-4.56,2.69-4.56S204.64,96.78,204.64,84.53Z" fill="#fff"/>
</svg>