<svg xmlns="http://www.w3.org/2000/svg" viewBox="0 -0.00917482 212 292">
  <path d="M140.81,44.68A40.5,40.5,0,0,0,128.1,25.44h0L127,24.55a2.81,2.81,0,0,0-4.26.89c-.33.79-.67,8.63-.67,10v.78a1.81,1.81,0,0,1-2.13,1.8,1.94,1.94,0,0,1-1.56-1.91c-.12-13.44-4.15-22.85-11.77-29.9C102,1.92,96.51-1.89,94.83,1c-.44.78.22,2.46,1,4.6,1.56,4.81-3.25,12.54-10.08,20.27-4.47,5.1-9.71,11-12.45,18.7C30.77,46.18,0,50.78,0,56.2c0,0,0,118.32,19.11,175.18S77.83,290.1,77.83,290.1,95.53,292,104.39,292h3.23c8.86,0,26.57-1.86,26.57-1.86s39.61-1.87,58.72-58.72S212,56.2,212,56.2C212,50.87,182.26,46.33,140.81,44.68Zm-133.2,13c0-4.45,27-8.25,64.7-9.69a31.94,31.94,0,0,0-.89,7.48,30.5,30.5,0,0,0,2.52,12C35.34,66,7.61,62.19,7.61,57.67Zm132.33,9.68a30.35,30.35,0,0,0,2.5-11.89,36.9,36.9,0,0,0-.78-7.4c36.72,1.49,62.75,5.23,62.75,9.61S177.57,65.9,139.94,67.35Z" fill="#06215a"/>
</svg>