<svg xmlns="http://www.w3.org/2000/svg" viewBox="97.92 64.97 31.62 57.68">
  <path d="M125.68,79.65a97.26,97.26,0,0,0-11.86-.72h0a97.24,97.24,0,0,0-11.9.72,47.14,47.14,0,0,0-4,18.89,57.31,57.31,0,0,0,4,20.12s1.66,3.51,3.07,3.73,7.3,0.26,8.39.26a0.6,0.6,0,0,1,.7,0c1.1,0,7,0,8.39-.26s3.07-3.73,3.07-3.73a57.31,57.31,0,0,0,4-20.12A47.14,47.14,0,0,0,125.68,79.65Z
M123.06,69.91c-2.5-4.74-8.92-4.94-8.92-4.94h-0.7s-6.41.19-8.92,4.94a17.85,17.85,0,0,0-2.29,7.67,98.5,98.5,0,0,1,11.57-.67h0a98.5,98.5,0,0,1,11.53.67A17.86,17.86,0,0,0,123.06,69.91Zm-9.27.22a3,3,0,0,1-3-2.88,22.88,22.88,0,0,1,6,0h0A3,3,0,0,1,113.79,70.13Z" fill="#fff"/>
</svg>