<svg xmlns="http://www.w3.org/2000/svg" viewBox="41.8644 2.1455 37.16 130.5">
  <path d="M79,5.65a1,1,0,1,0-2-.4l-9.3,41.6,3.2-43.6a1,1,0,0,0-2-.2l-.1.8c0,.3-.1.4-.1.6l-5.2,35.1,2.7-36.2a1,1,0,0,0-2-.2,1,1,0,0,0-.7-.4,1.09,1.09,0,0,0-1.1.9l-4.6,61.2c-1.5,0-2.8,0-4,.1L46.6,4.25a1,1,0,0,0-2,.2l7.2,60.8c-1.7.2-2.7.4-2.7.8a2.1,2.1,0,0,0,.7,1.4,2.59,2.59,0,0,0-.46.27h0c-.24.18-.45.42-.24.63.4.4.9.2.9,1.8s.8,5.7-1,7.3A16.15,16.15,0,0,0,47.44,79l-.27.32-.11.13c-.14.18-.29.34-.44.54v0a24.71,24.71,0,0,0-4.75,15.1v33.3s-.1,2.2.6,2.5a15.7,15.7,0,0,0,2.79.8l0,0a60.33,60.33,0,0,0,10.79.95h.07l1.65,0h1.48A74.38,74.38,0,0,0,70,132.09v0A19.31,19.31,0,0,0,74.6,131c.7-.3.6-2.5.6-2.5V95.15A25.43,25.43,0,0,0,72,82.39a.19.19,0,0,1,0-.08A21.09,21.09,0,0,0,70,79.51l-.14-.17c-.07-.08-.13-.16-.2-.23a15.51,15.51,0,0,0-1.6-1.66c-1.8-1.6-1-5.7-1-7.3s.5-1.4.9-1.8-.7-.9-.7-.9a2.1,2.1,0,0,0,.7-1.4c0-.3-.7-.5-1.9-.7l.4-4.9ZM64.7,60.15l-1.1,4.9c-.6,0-1.2-.1-1.8-.1L67,29.65Z" fill="#fff"/>
</svg>