<svg xmlns="http://www.w3.org/2000/svg" viewBox="43.719 2.15 33.46 130.6">
  <path d="M70.87,20.93V9.74a8.42,8.42,0,0,0-2.31-6.18c-.9-1-3.61-1.41-8-1.41s-7.08.51-8,1.41a8.18,8.18,0,0,0-2.31,6.18V20.93a87.54,87.54,0,0,1,10.42-.64A80.36,80.36,0,0,1,70.87,20.93Z
M77.18,39.59a20.19,20.19,0,0,0-6.05-14.28c-.9-.9-7.72-1.16-10-1.16h-.77c-2.31,0-9.26.26-10,1.16a20.52,20.52,0,0,0-6,14.28L43.72,129s-.13,1.29,2.58,2.19c2.31.77,6,1.42,11.83,1.55h4.38a52.48,52.48,0,0,0,11.84-1.55c2.7-.9,2.57-2.19,2.57-2.19Z" fill="#fff"/>
</svg>