<svg xmlns="http://www.w3.org/2000/svg" viewBox="283.88 44.6815 32.65 81.59">
  <path d="M290.38,44.82L286.9,45a0.67,0.67,0,0,0-.33.75c0,0.46.15,3.21,0.19,3.48s-0.12.52,0.33,0.54,3.21,0,3.21,0,0.35,0.1.4-.17,0.4-.48.52-0.31,0.73,0.29,1,.5,1.67,1.77.13,4.31-2.42,4.17-3.54,4.83-1,.73-0.29.67,2.85-.6,4.67-3.5,3.4-2.12,3.4-2.12a0.87,0.87,0,0,0,0,.79l0.23,0.33a0.94,0.94,0,0,1,.31.6c0,0.33-.19,1.17.15,1.31a3.55,3.55,0,0,0,.65.21v0.27s-1.48,0-1.5.69,0.08,4.75.08,4.75,3.44,0.21,4.81.15,4-.35,4-0.35V58.07a1.2,1.2,0,0,0-1-.71c-0.77-.08-0.21-0.42-0.06-0.4s1.27,0.13,1.23-.42-0.31-2.92,0-2.94l5.42-.23a3.64,3.64,0,0,1-.15-0.48,8.4,8.4,0,0,0-4.46-6.54C302,44,290.38,44.82,290.38,44.82Z
M298,66.59s-1.59-.16-1.72.78a47.08,47.08,0,0,1-5.1,15.93c-4.25,8.13-7.3,15.83-7.3,23.12s2.67,17,3.63,18.29a3.65,3.65,0,0,0,3.43,1.54h17a4.76,4.76,0,0,0,3.79-2.62,39.68,39.68,0,0,0,4.8-18.08C316.6,97,310,85.21,310,85.21s1.63-3.12,1.38-4-4.79-6.25-5.12-9.46-0.5-5.1-1.21-5.22S298,66.59,298,66.59Z" fill="#06215a"/>
</svg>