<svg xmlns="http://www.w3.org/2000/svg" viewBox="223.045 88 42.21 35.51">
  <path d="M262.84,115.64a3.92,3.92,0,0,0-2.68-2.49,5.91,5.91,0,0,0-4.31-4v-11h0V92A3.94,3.94,0,0,0,251.9,88H236.15A3.94,3.94,0,0,0,232.22,92v21.19a5.86,5.86,0,0,0-1.67,2.55,3.93,3.93,0,0,0-4.65,2.52h-0.23a2.62,2.62,0,1,0,0,5.25h19.68a2.63,2.63,0,0,0,2.27-1.31h4.29a3.93,3.93,0,0,0,2.93-1.31h7.56A2.62,2.62,0,0,0,262.84,115.64ZM240.09,97.88v6.56a0.66,0.66,0,1,1-1.31,0V97.88A0.66,0.66,0,1,1,240.09,97.88Zm2.62,19a1.31,1.31,0,0,1,1.18,1.88,0.66,0.66,0,0,0,.87.87,1.31,1.31,0,1,1,.57,2.5H225.66a1.31,1.31,0,0,1,0-2.62,1.27,1.27,0,0,1,.48.09,0.66,0.66,0,0,0,.89-0.51,2.61,2.61,0,0,1,3.7-1.95,0.63,0.63,0,0,0,.58,0,0.64,0.64,0,0,0,.35-0.46,4.59,4.59,0,0,1,9.06.2,0.64,0.64,0,0,0,.44.53m8.14-10.36a0.66,0.66,0,1,1-1.31,0V96.57a0.66,0.66,0,0,0-.66-0.66h-2.62a0.66,0.66,0,0,1,0-1.31h2.62a2,2,0,0,1,2,2v10.5Zm13.12,12.47h-6.79a4,4,0,0,0,.22-1.31v-7.68a4.6,4.6,0,0,1,3.15,3.32,0.65,0.65,0,0,0,.54.49,2.61,2.61,0,0,1,2.16,2,0.65,0.65,0,0,0,.66.52h0A1.31,1.31,0,1,1,262.4,119.54Z" fill="#fff"/>
</svg>